# xmcd
#
# Track frame offsets:
#	150
#	17491
#	45186
#	63153
#	78044
#	97324
#	118872
#	135707
#	159622
#	181940
#	202795
#	223769
#
# Disc length: 3320 seconds
#
# Revision: 1
# Processed by: cddbd v1.5.2PL0 Copyright (c) Steve Scherf et al.
# Submitted via: audiograbber 1.83.01
#
DISCID=980cf60c
DTITLE=Marc Pouliot - Mais... Pourquoi Chanter?
DYEAR=2008
DGENRE=Blues
TTITLE0=Pourquoi chanter?
TTITLE1=Vivre d'harmonie (Le Monarque)
TTITLE2=Le Bonheur
TTITLE3=À toi
TTITLE4=Ma muse
TTITLE5=Le courage du lâche
TTITLE6=J'ai pu d'sang dans tête
TTITLE7=Vivre ensembre
TTITLE8=Toi (mon lac) que j'aime tant
TTITLE9=Miroir de saphir
TTITLE10=Je m'en veux
TTITLE11=À l'âge que j'ai
EXTD=Site Internet: www.marcpouliot.net\nMPC2008-1 (R) Tous Droits Réservés Mar
EXTD=c Pouliot Fabriqué au Canada\nUPC 0-94922-98511-8\n\nSoumis à freedb par B
EXTD=igueNique@yahoo.ca\nhttp://radio.fiatlux.tk/\nradio@fiatlux.tk
EXTT0=
EXTT1=
EXTT2=
EXTT3=
EXTT4=
EXTT5=
EXTT6=
EXTT7=
EXTT8=
EXTT9=
EXTT10=
EXTT11=
PLAYORDER=
